<?xml version="1.0" encoding="utf-8" standalone="no"?>
<!DOCTYPE svg PUBLIC "-//W3C//DTD SVG 1.1//EN"
  "http://www.w3.org/Graphics/SVG/1.1/DTD/svg11.dtd">
<svg xmlns:xlink="http://www.w3.org/1999/xlink" width="268.206557pt" height="266.112pt" viewBox="0 0 268.206557 266.112" xmlns="http://www.w3.org/2000/svg" version="1.1">
 <metadata>
  <rdf:RDF xmlns:dc="http://purl.org/dc/elements/1.1/" xmlns:cc="http://creativecommons.org/ns#" xmlns:rdf="http://www.w3.org/1999/02/22-rdf-syntax-ns#">
   <cc:Work>
    <dc:type rdf:resource="http://purl.org/dc/dcmitype/StillImage"/>
    <dc:date>2025-04-09T11:47:12.749145</dc:date>
    <dc:format>image/svg+xml</dc:format>
    <dc:creator>
     <cc:Agent>
      <dc:title>Matplotlib v3.10.1, https://matplotlib.org/</dc:title>
     </cc:Agent>
    </dc:creator>
   </cc:Work>
  </rdf:RDF>
 </metadata>
 <defs>
  <style type="text/css">*{stroke-linejoin: round; stroke-linecap: butt}</style>
 </defs>
 <g id="figure_1">
  <g id="patch_1">
   <path d="M 0 266.112 
L 268.206557 266.112 
L 268.206557 0 
L 0 0 
L 0 266.112 
z
" style="fill: none"/>
  </g>
  <g id="axes_1">
   <g id="line2d_1">
    <path d="M 230.190557 153.9648 
L 227.589337 153.282286 
L 225.016139 152.553326 
L 222.470964 151.777922 
L 219.953812 150.956072 
L 217.464682 150.087778 
L 215.003575 149.173038 
L 212.570491 148.211853 
L 210.165429 147.204224 
L 207.78839 146.150149 
L 205.439374 145.049629 
L 203.11838 143.902665 
L 200.825409 142.709255 
L 198.560461 141.4694 
L 196.323535 140.1831 
L 194.114632 138.850356 
L 191.933752 137.471166 
L 189.780894 136.045531 
L 187.656059 134.573451 
L 185.559247 133.054926 
L 183.490457 131.489956 
L 181.449691 129.878541 
L 179.436946 128.220681 
L 177.452225 126.516376 
L 175.495526 124.765626 
L 173.56685 122.968431 
L 171.666196 121.124791 
L 169.793565 119.234705 
L 167.948957 117.298175 
L 166.132372 115.3152 
" clip-path="url(#pb592310ce9)" style="fill: none; stroke: #008000; stroke-width: 2; stroke-linecap: square"/>
   </g>
   <g id="line2d_2">
    <path d="M 166.132372 115.3152 
L 162.760746 110.915763 
L 159.314392 106.640179 
L 155.793312 102.488448 
L 152.197505 98.460571 
L 148.52697 94.556547 
L 144.781708 90.776377 
L 140.96172 87.12006 
L 137.067004 83.587596 
L 133.097561 80.178986 
L 129.05339 76.89423 
L 124.934493 73.733326 
L 120.740868 70.696276 
L 116.472517 67.78308 
L 112.129438 64.993737 
L 107.711632 62.328247 
L 103.219099 59.786611 
L 98.651839 57.368828 
L 94.009851 55.074899 
L 89.293137 52.904823 
L 84.501695 50.8586 
L 79.635527 48.936231 
L 74.694631 47.137715 
L 69.679008 45.463053 
L 64.588658 43.912244 
L 59.42358 42.485288 
L 54.183776 41.182186 
L 48.869244 40.002937 
L 43.479986 38.947542 
L 38.016 38.016 
" clip-path="url(#pb592310ce9)" style="fill: none; stroke: #008000; stroke-width: 2; stroke-linecap: square"/>
   </g>
   <g id="line2d_3">
    <path d="M 230.190557 153.9648 
L 228.78515 156.34802 
L 227.413728 158.743599 
L 226.076291 161.151537 
L 224.77284 163.571835 
L 223.503373 166.004491 
L 222.267891 168.449507 
L 221.066395 170.906882 
L 219.898884 173.376616 
L 218.765358 175.858709 
L 217.665817 178.353162 
L 216.600261 180.859973 
L 215.56869 183.379144 
L 214.571105 185.910674 
L 213.607504 188.454563 
L 212.677889 191.010812 
L 211.782259 193.579419 
L 210.920614 196.160386 
L 210.092954 198.753711 
L 209.299279 201.359396 
L 208.539589 203.97744 
L 207.813885 206.607844 
L 207.122165 209.250606 
L 206.464431 211.905728 
L 205.840682 214.573209 
L 205.250918 217.253049 
L 204.695139 219.945248 
L 204.173345 222.649806 
L 203.685537 225.366723 
L 203.231713 228.096 
" clip-path="url(#pb592310ce9)" style="fill: none; stroke: #008000; stroke-width: 2; stroke-linecap: square"/>
   </g>
   <g id="line2d_4">
    <path d="M 203.231713 228.096 
L 38.016 228.096 
" clip-path="url(#pb592310ce9)" style="fill: none; stroke: #008000; stroke-width: 2; stroke-linecap: square"/>
   </g>
   <g id="line2d_5">
    <path d="M 38.016 228.096 
L 38.016 38.016 
" clip-path="url(#pb592310ce9)" style="fill: none; stroke: #008000; stroke-width: 2; stroke-linecap: square"/>
   </g>
  </g>
 </g>
 <defs>
  <clipPath id="pb592310ce9">
   <rect x="0" y="-0" width="268.206557" height="266.112"/>
  </clipPath>
 </defs>
</svg>
