<?xml version="1.0" encoding="UTF-8" standalone="no"?>
<svg xmlns="http://www.w3.org/2000/svg" viewBox="-5 -6.5 42.0 81.5" width="42.0mm" height="81.5mm" preserveAspectRatio="xMidYMid meet">
<title>Back</title>
<polyline points="0.0,0.0 0.4436423080459102,0.016395412064654426 0.8748077024629255,0.02792514198675964 1.2934961832510454,0.03458918976631565 1.6997077504102702,0.036387555403322454 2.0934424039406005,0.03332023889778004 2.4747001438420355,0.025387240249688428 2.843480970114575,0.01258855945904759 3.19978488275822,-0.00507580347414241 3.5436118817729705,-0.027605848549881642 3.8749619671588245,-0.05500157576817012 4.193835138915784,-0.08726298512900771 4.500231397043849,-0.1243900766323946 4.794150741543018,-0.16638285027833072 5.075593172413292,-0.21324130606681604 5.344558689654672,-0.2649654439978505 5.601047293267156,-0.3215552640714341 5.845058983250745,-0.3830107662875669 6.07659375960544,-0.4493319506462491 6.295651622331238,-0.5205188171474804 6.502232571428143,-0.596571365791261 6.696336606896152,-0.6774895965775907 6.877963728735265,-0.7632735095064695 7.047113936945484,-0.8539231045778979 7.203787231526808,-0.9494383817918752 7.347983612479236,-1.0498193411484014 7.479703079802771,-1.1550659826474776 7.598945633497409,-1.2651783062891024 7.7057112735631526,-1.380156312073277 7.800000000000001,-1.5" fill="none" stroke="blue" stroke-width="0.5mm" />
<line x1="32.0" y1="30.5" x2="32.0" y2="70" stroke="blue" stroke-width="0.5mm" />
<line x1="32.0" y1="70" x2="0" y2="70" stroke="blue" stroke-width="0.5mm" />
<line x1="0" y1="70" x2="0" y2="0" stroke="blue" stroke-width="0.5mm" />
<polyline points="25.75,3.8125 25.70090369254054,4.052399368856482 25.653466973544923,4.303334250774939 25.607689843013173,4.565304645755371 25.563572300945264,4.838310553797779 25.521114347341218,5.122351974902163 25.48031598220102,5.417428909068522 25.441177205524674,5.723541356296856 25.403698017312188,6.040689316587166 25.367878417563553,6.368872789939452 25.333718406278763,6.7080917763537125 25.301217983457832,7.058346275829948 25.27037714910076,7.41963628836816 25.241195903207533,7.7919618139683475 25.21367424577816,8.175322852630508 25.18781217681265,8.569719404354647 25.163609696310978,8.97515146914076 25.141066804273173,9.391619046988849 25.120183500699213,9.819122137898914 25.100959785589108,10.257660741870954 25.08339565894286,10.70723485890497 25.067491120760465,11.16784448900096 25.053246171041916,11.639489632158925 25.040660809787227,12.122170288378868 25.02973503699639,12.615886457660784 25.020468852669403,13.120638140004676 25.012862256806276,13.636425335410545 25.006915249406998,14.163248043878387 25.002627830471575,14.701106265408207 25.0,15.25" fill="none" stroke="blue" stroke-width="0.5mm" />
<polyline points="25.0,15.25 25.03201870059252,16.117844167529828 25.07899173045305,16.961261042305058 25.140919089581608,17.780250624325692 25.21780077797818,18.57481291359173 25.30963679564279,19.344947910103187 25.41642714257542,20.090655613860047 25.538171818776057,20.81193602486231 25.674870824244735,21.508789143109983 25.826524158981425,22.18121496860306 25.993131822986136,22.829213501341542 26.17469381625888,23.45278474132543 26.371210138799636,24.051928688554735 26.582680790608418,24.626645343029434 26.809105771685218,25.17693470474954 27.05048508203005,25.70279677371506 27.3068187216429,26.204231549925986 27.578106690523775,26.68123903338231 27.86434898867267,27.133819224084053 28.165545616089588,27.5619721220312 28.481696572774528,27.96569772722375 28.81280185872749,28.34499603966171 29.158861473948473,28.699867059345067 29.519875418437483,29.03031078627384 29.89584369219451,29.336327220448016 30.286766295219564,29.6179163618676 30.69264322751264,29.875078210532592 31.113474489073738,30.107812766442986 31.549260079902858,30.31612002959879 32.0,30.5" fill="none" stroke="blue" stroke-width="0.5mm" />
<line x1="7.800000000000001" y1="-1.5" x2="25.75" y2="3.8125" stroke="blue" stroke-width="0.5mm" />
</svg>
