<?xml version="1.0" encoding="UTF-8" standalone="no"?>
<svg xmlns="http://www.w3.org/2000/svg" viewBox="-5 -5 35.27548366665349 35" width="35.27548366665349mm" height="35mm" preserveAspectRatio="xMidYMid meet">
<title>Short Sleeve</title>
<polyline points="25.275483666653493,15.25 24.933361873291815,15.160233266272567 24.594925722258377,15.064357916645529 24.260175213553204,14.962373951118893 23.929110347176273,14.854281369692655 23.601731123127607,14.740080172366818 23.278037541407194,14.619770359141384 22.958029602015028,14.493351930016345 22.641707304951122,14.360824884991711 22.329070650215474,14.222189224067472 22.020119637808065,14.077444947243633 21.71485426772892,13.926592054520196 21.41327453997803,13.76963054589716 21.115380454555385,13.606560421374517 20.821172011460998,13.437381680952278 20.530649210694868,13.26209432463044 20.24381205225699,13.080698352409001 19.960660536147365,12.893193764287961 19.681194662365996,12.699580560267322 19.405414430912877,12.499858740347081 19.133319841788015,12.294028304527242 18.864910894991404,12.082089252807801 18.60018759052305,11.86404158518876 18.339149928382945,11.63988530167012 18.081797908571097,11.409620402251878 17.828131531087504,11.173246886934036 17.578150795932164,10.930764755716595 17.331855703105077,10.682174008599553 17.08924625260624,10.427474645582912 16.850322444435662,10.166666666666668" fill="none" stroke="green" stroke-width="0.5mm" />
<polyline points="16.850322444435662,10.166666666666668 16.40687415649154,9.588036960437915 15.953597489005402,9.025696896608093 15.490492441977258,8.479646475177208 15.0175590154071,7.9498856961452535 14.534797209294936,7.436414559512237 14.042207023640763,6.939233065278153 13.539788458444576,6.458341213443001 13.027541513706383,5.993739004006787 12.50546618942618,5.545426436969504 11.973562485603964,5.113403512331155 11.43183040223974,4.697670230091742 10.880269939333505,4.298226590251262 10.31888109688526,3.9150725928097145 9.747663874895004,3.548208237767102 9.166618273362742,3.197633525123424 8.575744292288467,2.8633484548786807 7.975041931672186,2.5453530270328706 7.364511191513889,2.2436472415859936 6.744152071813587,1.9582310985380518 6.1139645725712715,1.689104597889043 5.473948693786948,1.4362677396389691 4.824104435460615,1.1997205237878295 4.16443179759227,0.9794629503356227 3.4949307801819174,0.7754950192823508 2.8156013832295548,0.5878167306280129 2.12644360673518,0.41642808437260836 1.427457450698797,0.2613290805161384 0.7186429151204023,0.12251971905860198 0.0,0.0" fill="none" stroke="green" stroke-width="0.5mm" />
<polyline points="25.275483666653493,15.25 25.090639500057577,15.56344959187799 24.910265179361584,15.87852470551839 24.73436070456552,16.195225340921198 24.562926075669385,16.51355149808641 24.39596129267319,16.833503177014045 24.23346635557692,17.15508037770408 24.075441264380572,17.478283100156528 23.921886019084162,17.803111344371388 23.77280061968768,18.12956511034865 23.628185066191126,18.457644398088327 23.4880393585945,18.787349207590413 23.352363496897805,19.11867953885491 23.221157481101038,19.451635391881815 23.094421311204197,19.786216766671128 22.972154987207293,20.122423663222854 22.85435850911032,20.460256081536983 22.74103187691327,20.799714021613525 22.63217509061615,21.14079748345248 22.527788150218964,21.483506467053843 22.427871055721706,21.82784097241762 22.33242380712438,22.1738009995438 22.241446404426974,22.52138654843239 22.154938847629502,22.87059761908339 22.072901136731964,23.2214342114968 21.995333271734353,23.57389632567262 21.92223525263667,23.927983961610856 21.853607079438916,24.283697119311494 21.789448752141098,24.641035798774546 21.729760270743203,25.0" fill="none" stroke="green" stroke-width="0.5mm" />
<line x1="21.729760270743203" y1="25" x2="0" y2="25" stroke="green" stroke-width="0.5mm" />
<line x1="0" y1="25" x2="0" y2="0" stroke="green" stroke-width="0.5mm" />
</svg>
