<?xml version="1.0" encoding="UTF-8" standalone="no"?>
<svg xmlns="http://www.w3.org/2000/svg" viewBox="-10 -9 57.25 134" width="57.25mm" height="134mm" preserveAspectRatio="xMidYMid meet">
<title>Back</title>
<polyline points="29.75,16.0 29.86023057856663,16.971171581582123 29.993375721718394,17.91484568566207 30.1494354294553,18.83102231223985 30.328409701777343,19.719701461315452 30.530298538684544,20.580883132888893 30.755101940176882,21.414567326960157 31.002819906254356,22.220754043529247 31.273452436916983,22.999443282596175 31.56699953216475,23.750635044160926 31.883461191997654,24.474329328223504 32.2228374164157,25.170526134783913 32.5851282054189,25.839225463842155 32.97033355900723,26.480427315398217 33.378453477180706,27.09413168945211 33.80948795993933,27.680338586003835 34.263437007283095,28.239048005053387 34.740300619212,28.77025994660077 35.24007879572605,29.273974410645984 35.76277153682524,29.75019139718902 36.308378842509576,30.19891090622989 36.876900712779054,30.62013293776859 37.46833714763367,31.013857491805112 38.08268814707343,31.38008456833947 38.719953711098334,31.718814167371647 39.38013383970838,32.03004628890166 40.06322853290357,32.313780932929504 40.7692377906839,32.570018099455176 41.49816161304938,32.798757788478675 42.25,33.0" fill="none" stroke="blue" stroke-width="0.5mm" />
<line x1="31.225694444444443" y1="74.0" x2="27.791666666666664" y2="120" stroke="blue" stroke-width="0.5mm" />
<line x1="27.791666666666664" y1="120" x2="3.958333333333334" y2="120" stroke="blue" stroke-width="0.5mm" />
<line x1="3.958333333333334" y1="120" x2="-5" y2="0" stroke="blue" stroke-width="0.5mm" />
<line x1="-5" y1="0" x2="23.75" y2="-4" stroke="blue" stroke-width="0.5mm" />
<line x1="23.75" y1="-4" x2="29.75" y2="16.0" stroke="blue" stroke-width="0.5mm" />
<polyline points="42.25,33.0 41.612637896705245,34.34463208601424 40.99364819597205,35.69420424470232 40.39303089780041,37.04871647606427 39.81078600219031,38.40816878010007 39.2469135091418,39.77256115680975 38.70141341865484,41.141893606193285 38.174285730729416,42.51616612825066 37.665530445365576,43.895378722981924 37.17514756256328,45.27953139038704 36.703137082322534,46.66862413046601 36.249499004643354,48.06265694321885 35.814233329525734,49.46162982864554 35.39734005696967,50.8655427867461 34.998819186975155,52.2743958175205 34.61867071954221,53.688188920968784 34.256894654670816,55.106922097090916 33.913490992360984,56.53059534588691 33.588459732612705,57.959208667356776 33.28180087542598,59.39276206150049 32.99351442080082,60.83125552831807 32.723600368737216,62.27468906780952 32.472058719235164,63.7230626799748 32.23888947229468,65.17637636481398 32.02409262791574,66.63463012232698 31.82766818609837,68.09782395251386 31.649616146842554,69.56595785537462 31.48993651014829,71.03903183090922 31.34862927601559,72.51704587911769 31.225694444444443,74.0" fill="none" stroke="blue" stroke-width="0.5mm" />
</svg>
