<?xml version="1.0" encoding="UTF-8" standalone="no"?>
<svg xmlns="http://www.w3.org/2000/svg" viewBox="-5 -5 45.5 130" width="45.5mm" height="130mm" preserveAspectRatio="xMidYMid meet">
<title>Front</title>
<line x1="0" y1="0" x2="0" y2="32" stroke="red" stroke-width="0.5mm" />
<line x1="28.75" y1="0" x2="29.75" y2="21.0" stroke="red" stroke-width="0.5mm" />
<line x1="0" y1="0" x2="28.75" y2="0" stroke="red" stroke-width="0.5mm" />
<polyline points="29.75,21.0 29.765903129846738,21.728197310817947 29.794832883423627,22.43147412406515 29.83678926073068,23.109830439741614 29.89177226176788,23.763266257847334 29.959781886535257,24.391781578382325 30.040818135032794,24.995376401346572 30.13488100726047,25.57405072674007 30.241970503218326,26.127804554562836 30.36208662290634,26.656637884814863 30.4952293663245,27.16055071749615 30.64139873347283,27.639543052606697 30.80059472435132,28.093614890146505 30.972817338959963,28.522766230115565 31.15806657729877,28.926997072513892 31.356342439367733,29.30630741734148 31.56764492516686,29.660697264598326 31.791974034696146,29.990166614284433 32.02932976795559,30.2947154663998 32.27971212494519,30.574343820944428 32.54312110566496,30.829051677918315 32.81955671011488,31.058839037321462 33.10901893829496,31.263705899153866 33.41150779020521,31.443652263415533 33.7270232658456,31.59867813010646 34.05556536521616,31.728783499226648 34.39713408831689,31.8339683707761 34.75172943514776,31.914232744754806 35.119351405708805,31.969576621162773 35.5,32.0" fill="none" stroke="red" stroke-width="0.5mm" />
<line x1="26.791666666666664" y1="120" x2="15.875" y2="120" stroke="red" stroke-width="0.5mm" />
<line x1="15.875" y1="120" x2="4.958333333333334" y2="120" stroke="red" stroke-width="0.5mm" />
<line x1="0" y1="32" x2="4.958333333333334" y2="120" stroke="red" stroke-width="0.5mm" />
<line x1="26.791666666666664" y1="120" x2="29.383522727272727" y2="74.0" stroke="red" stroke-width="0.5mm" />
<polyline points="29.383522727272727,74.0 29.462651071768406,72.53253228298324 29.55119260661469,71.06643541274843 29.649147331811612,69.60170938929562 29.756515247359147,68.1383542126248 29.873296353257317,66.67636988273598 29.9994906495061,65.21575639962914 30.1350981361055,63.75651376330426 30.28011881305554,62.2986419737614 30.434552680356195,60.842141031000516 30.598399738007465,59.387010935021614 30.771659986009364,57.9332516858247 30.95433342436189,56.48086328340979 31.146420053065032,55.02984572777684 31.347919872118794,53.580199018925875 31.558832881523184,52.13192315685692 31.779159081278195,50.68501814156994 32.00889847138383,49.23948397306495 32.248051051840086,47.795320651341946 32.49661682264696,46.352528176400924 32.75459578380447,44.91110654824189 33.021987935312595,43.47105576686485 33.29879327717134,42.032375832269786 33.58501180938071,40.595066744456716 33.8806435319407,39.15912850342563 34.185688444851316,37.724561109176534 34.50014654811255,36.291364561709415 34.82401784172441,34.85953886102429 35.1573023256869,33.429084007121155 35.5,32.0" fill="none" stroke="red" stroke-width="0.5mm" />
</svg>
