<?xml version="1.0" encoding="utf-8" standalone="no"?>
<!DOCTYPE svg PUBLIC "-//W3C//DTD SVG 1.1//EN"
  "http://www.w3.org/Graphics/SVG/1.1/DTD/svg11.dtd">
<svg xmlns:xlink="http://www.w3.org/1999/xlink" width="93.1392pt" height="266.112pt" viewBox="0 0 93.1392 266.112" xmlns="http://www.w3.org/2000/svg" version="1.1">
 <metadata>
  <rdf:RDF xmlns:dc="http://purl.org/dc/elements/1.1/" xmlns:cc="http://creativecommons.org/ns#" xmlns:rdf="http://www.w3.org/1999/02/22-rdf-syntax-ns#">
   <cc:Work>
    <dc:type rdf:resource="http://purl.org/dc/dcmitype/StillImage"/>
    <dc:date>2025-04-09T10:55:42.317566</dc:date>
    <dc:format>image/svg+xml</dc:format>
    <dc:creator>
     <cc:Agent>
      <dc:title>Matplotlib v3.10.1, https://matplotlib.org/</dc:title>
     </cc:Agent>
    </dc:creator>
   </cc:Work>
  </rdf:RDF>
 </metadata>
 <defs>
  <style type="text/css">*{stroke-linejoin: round; stroke-linecap: butt}</style>
 </defs>
 <g id="figure_1">
  <g id="patch_1">
   <path d="M 0 266.112 
L 93.1392 266.112 
L 93.1392 0 
L 0 0 
L 0 266.112 
z
" style="fill: none"/>
  </g>
  <g id="axes_1">
   <g id="line2d_1">
    <path d="M 10.235077 10.235077 
L 10.235077 75.739569 
" clip-path="url(#p29582f977b)" style="fill: none; stroke: #000000; stroke-width: 2; stroke-linecap: square"/>
   </g>
   <g id="line2d_2">
    <path d="M 69.086769 10.235077 
L 71.133785 53.2224 
" clip-path="url(#p29582f977b)" style="fill: none; stroke: #000000; stroke-width: 2; stroke-linecap: square"/>
   </g>
   <g id="line2d_3">
    <path d="M 10.235077 10.235077 
L 69.086769 10.235077 
" clip-path="url(#p29582f977b)" style="fill: none; stroke: #000000; stroke-width: 2; stroke-linecap: square"/>
   </g>
   <g id="line2d_4">
    <path d="M 71.133785 53.2224 
L 71.166339 54.713031 
L 71.225558 56.15265 
L 71.311444 57.541255 
L 71.423995 58.878849 
L 71.563211 60.165429 
L 71.729094 61.400997 
L 71.921642 62.585552 
L 72.140856 63.719095 
L 72.386735 64.801625 
L 72.659281 65.833142 
L 72.958492 66.813647 
L 73.284368 67.743139 
L 73.636911 68.621618 
L 74.016119 69.449085 
L 74.421992 70.225539 
L 74.854532 70.950981 
L 75.313737 71.625409 
L 75.799608 72.248826 
L 76.312144 72.821229 
L 76.851346 73.34262 
L 77.417214 73.812998 
L 78.009748 74.232364 
L 78.628947 74.600717 
L 79.274812 74.918057 
L 79.947343 75.184385 
L 80.64654 75.3997 
L 81.372402 75.564002 
L 82.12493 75.677292 
L 82.904123 75.739569 
" clip-path="url(#p29582f977b)" style="fill: none; stroke: #000000; stroke-width: 2; stroke-linecap: square"/>
   </g>
   <g id="line2d_5">
    <path d="M 65.078031 255.876923 
L 42.731446 255.876923 
" clip-path="url(#p29582f977b)" style="fill: none; stroke: #000000; stroke-width: 2; stroke-linecap: square"/>
   </g>
   <g id="line2d_6">
    <path d="M 42.731446 255.876923 
L 20.384862 255.876923 
" clip-path="url(#p29582f977b)" style="fill: none; stroke: #000000; stroke-width: 2; stroke-linecap: square"/>
   </g>
   <g id="line2d_7">
    <path d="M 10.235077 75.739569 
L 20.384862 255.876923 
" clip-path="url(#p29582f977b)" style="fill: none; stroke: #000000; stroke-width: 2; stroke-linecap: square"/>
   </g>
   <g id="line2d_8">
    <path d="M 65.078031 255.876923 
L 70.3836 161.714215 
" clip-path="url(#p29582f977b)" style="fill: none; stroke: #000000; stroke-width: 2; stroke-linecap: square"/>
   </g>
   <g id="line2d_9">
    <path d="M 70.3836 161.714215 
L 70.545577 158.710286 
L 70.726823 155.709164 
L 70.927338 152.710847 
L 71.147121 149.715336 
L 71.386174 146.722632 
L 71.644496 143.732734 
L 71.922086 140.745641 
L 72.218946 137.761355 
L 72.535074 134.779876 
L 72.870472 131.801202 
L 73.225138 128.825334 
L 73.599074 125.852273 
L 73.992278 122.882018 
L 74.404751 119.914569 
L 74.836493 116.949926 
L 75.287504 113.988089 
L 75.757785 111.029058 
L 76.247334 108.072834 
L 76.756152 105.119415 
L 77.284238 102.168803 
L 77.831594 99.220997 
L 78.398219 96.275997 
L 78.984113 93.333803 
L 79.589275 90.394415 
L 80.213707 87.457834 
L 80.857408 84.524059 
L 81.520377 81.593089 
L 82.202616 78.664926 
L 82.904123 75.739569 
" clip-path="url(#p29582f977b)" style="fill: none; stroke: #000000; stroke-width: 2; stroke-linecap: square"/>
   </g>
  </g>
 </g>
 <defs>
  <clipPath id="p29582f977b">
   <rect x="0" y="-0" width="93.1392" height="266.112"/>
  </clipPath>
 </defs>
</svg>
