<?xml version="1.0" encoding="utf-8" standalone="no"?>
<!DOCTYPE svg PUBLIC "-//W3C//DTD SVG 1.1//EN"
  "http://www.w3.org/Graphics/SVG/1.1/DTD/svg11.dtd">
<svg xmlns:xlink="http://www.w3.org/1999/xlink" width="107.505391pt" height="266.112pt" viewBox="0 0 107.505391 266.112" xmlns="http://www.w3.org/2000/svg" version="1.1">
 <metadata>
  <rdf:RDF xmlns:dc="http://purl.org/dc/elements/1.1/" xmlns:cc="http://creativecommons.org/ns#" xmlns:rdf="http://www.w3.org/1999/02/22-rdf-syntax-ns#">
   <cc:Work>
    <dc:type rdf:resource="http://purl.org/dc/dcmitype/StillImage"/>
    <dc:date>2025-04-09T11:47:15.147550</dc:date>
    <dc:format>image/svg+xml</dc:format>
    <dc:creator>
     <cc:Agent>
      <dc:title>Matplotlib v3.10.1, https://matplotlib.org/</dc:title>
     </cc:Agent>
    </dc:creator>
   </cc:Work>
  </rdf:RDF>
 </metadata>
 <defs>
  <style type="text/css">*{stroke-linejoin: round; stroke-linecap: butt}</style>
 </defs>
 <g id="figure_1">
  <g id="patch_1">
   <path d="M 0 266.112 
L 107.505391 266.112 
L 107.505391 0 
L 0 0 
L 0 266.112 
z
" style="fill: none"/>
  </g>
  <g id="axes_1">
   <g id="line2d_1">
    <path d="M 74.723478 46.280348 
L 74.899775 48.069511 
L 75.120475 49.80687 
L 75.385578 51.492426 
L 75.695084 53.126179 
L 76.048992 54.708128 
L 76.447303 56.238274 
L 76.890018 57.716617 
L 77.377135 59.143156 
L 77.908655 60.517892 
L 78.484577 61.840825 
L 79.104903 63.111954 
L 79.769631 64.33128 
L 80.478763 65.498803 
L 81.232297 66.614522 
L 82.030234 67.678438 
L 82.872574 68.690551 
L 83.759316 69.65086 
L 84.690462 70.559366 
L 85.666011 71.416069 
L 86.685962 72.220969 
L 87.750316 72.974065 
L 88.859073 73.675357 
L 90.012233 74.324847 
L 91.209796 74.922533 
L 92.451761 75.468415 
L 93.73813 75.962495 
L 95.068901 76.404771 
L 96.444075 76.795244 
L 97.863652 77.133913 
" clip-path="url(#p572fef8146)" style="fill: none; stroke: #0000ff; stroke-width: 2; stroke-linecap: square"/>
   </g>
   <g id="line2d_2">
    <path d="M 17.35513 84.847304 
L 9.641739 17.35513 
" clip-path="url(#p572fef8146)" style="fill: none; stroke: #0000ff; stroke-width: 2; stroke-linecap: square"/>
   </g>
   <g id="line2d_3">
    <path d="M 9.641739 17.35513 
L 63.153391 9.641739 
" clip-path="url(#p572fef8146)" style="fill: none; stroke: #0000ff; stroke-width: 2; stroke-linecap: square"/>
   </g>
   <g id="line2d_4">
    <path d="M 63.153391 9.641739 
L 74.723478 46.280348 
" clip-path="url(#p572fef8146)" style="fill: none; stroke: #0000ff; stroke-width: 2; stroke-linecap: square"/>
   </g>
   <g id="line2d_5">
    <path d="M 74.723478 46.280348 
L 97.863652 77.133913 
" clip-path="url(#p572fef8146)" style="fill: none; stroke: #0000ff; stroke-width: 2; stroke-linecap: square"/>
   </g>
   <g id="line2d_6">
    <path d="M 97.863652 77.133913 
L 76.82993 160.05287 
" clip-path="url(#p572fef8146)" style="fill: none; stroke: #0000ff; stroke-width: 2; stroke-linecap: square"/>
   </g>
   <g id="line2d_7">
    <path d="M 76.82993 160.05287 
L 69.018783 256.470261 
" clip-path="url(#p572fef8146)" style="fill: none; stroke: #0000ff; stroke-width: 2; stroke-linecap: square"/>
   </g>
   <g id="line2d_8">
    <path d="M 69.018783 256.470261 
L 47.967652 256.470261 
" clip-path="url(#p572fef8146)" style="fill: none; stroke: #0000ff; stroke-width: 2; stroke-linecap: square"/>
   </g>
   <g id="line2d_9">
    <path d="M 76.82993 160.05287 
L 70.94713 248.75687 
" clip-path="url(#p572fef8146)" style="fill: none; stroke: #0000ff; stroke-width: 2; stroke-linecap: square"/>
   </g>
   <g id="line2d_10">
    <path d="M 70.94713 248.75687 
L 24.988174 248.75687 
" clip-path="url(#p572fef8146)" style="fill: none; stroke: #0000ff; stroke-width: 2; stroke-linecap: square"/>
   </g>
   <g id="line2d_11">
    <path d="M 24.988174 248.75687 
L 9.641739 17.35513 
" clip-path="url(#p572fef8146)" style="fill: none; stroke: #0000ff; stroke-width: 2; stroke-linecap: square"/>
   </g>
   <g id="line2d_12">
    <path d="M 9.641739 17.35513 
L 63.153391 9.641739 
" clip-path="url(#p572fef8146)" style="fill: none; stroke: #0000ff; stroke-width: 2; stroke-linecap: square"/>
   </g>
   <g id="line2d_13">
    <path d="M 63.153391 9.641739 
L 74.723478 46.280348 
" clip-path="url(#p572fef8146)" style="fill: none; stroke: #0000ff; stroke-width: 2; stroke-linecap: square"/>
   </g>
   <g id="line2d_14">
    <path d="M 97.863652 77.133913 
L 96.640504 79.866901 
L 95.452917 82.608909 
L 94.30089 85.359937 
L 93.184424 88.119986 
L 92.103518 90.889055 
L 91.058173 93.667145 
L 90.048388 96.454256 
L 89.074164 99.250387 
L 88.1355 102.055538 
L 87.232397 104.86971 
L 86.364854 107.692902 
L 85.532872 110.525115 
L 84.73645 113.366349 
L 83.975589 116.216603 
L 83.250288 119.075877 
L 82.560548 121.944172 
L 81.906368 124.821487 
L 81.287749 127.707823 
L 80.70469 130.603179 
L 80.157192 133.507556 
L 79.645254 136.420953 
L 79.168877 139.343371 
L 78.72806 142.27481 
L 78.322804 145.215268 
L 77.953108 148.164748 
L 77.618973 151.123247 
L 77.320398 154.090768 
L 77.057384 157.067308 
L 76.82993 160.05287 
" clip-path="url(#p572fef8146)" style="fill: none; stroke: #0000ff; stroke-width: 2; stroke-linecap: square"/>
   </g>
  </g>
 </g>
 <defs>
  <clipPath id="p572fef8146">
   <rect x="0" y="-0" width="107.505391" height="266.112"/>
  </clipPath>
 </defs>
</svg>
