<?xml version="1.0" encoding="UTF-8" standalone="no"?>
<svg xmlns="http://www.w3.org/2000/svg" viewBox="-5 -5 45.5 130" width="45.5mm" height="130mm" preserveAspectRatio="xMidYMid meet">
<title>Front</title>
<line x1="0" y1="0" x2="0" y2="30" stroke="red" stroke-width="0.5mm" />
<line x1="28.75" y1="0" x2="29.75" y2="21.0" stroke="red" stroke-width="0.5mm" />
<line x1="0" y1="0" x2="28.75" y2="0" stroke="red" stroke-width="0.5mm" />
<polyline points="29.75,21.0 29.79842294514293,21.54489721929653 29.857549670066284,22.073040696328036 29.927380174770075,22.584430431094518 30.007914459254287,23.079066423595975 30.09915252351895,23.556948673832416 30.201094367564032,24.018077181803832 30.31373999138954,24.462451947510218 30.43708939499549,24.89007297095159 30.57114257838187,25.300940252127933 30.715899541548673,25.695053791039253 30.871360284495914,26.072413587685553 31.03752480722359,26.43301964206683 31.214393109731688,26.776871954183083 31.40196519202022,27.10397052403431 31.60024105408919,27.41431535162052 31.809220695938585,27.707906436941705 32.028904117568416,27.984743779997864 32.259291318978676,28.244827380789 32.50038230016936,28.488157239315115 32.752177061140486,28.714733355576207 33.014675601892044,28.92455572957228 33.28787792242402,29.11762436130332 33.571784022736445,29.29393925076935 33.86639390282929,29.453500397970345 34.171707562702565,29.59630780290632 34.487725002356285,29.722361465577276 34.81444622179042,29.831661385983207 35.151871221004996,29.924207564124117 35.5,30.0" fill="none" stroke="red" stroke-width="0.5mm" />
<line x1="26.791666666666664" y1="120" x2="15.875" y2="120" stroke="red" stroke-width="0.5mm" />
<line x1="15.875" y1="120" x2="4.958333333333334" y2="120" stroke="red" stroke-width="0.5mm" />
<line x1="0" y1="30" x2="4.958333333333334" y2="120" stroke="red" stroke-width="0.5mm" />
<line x1="26.791666666666664" y1="120" x2="29.325925925925926" y2="74.0" stroke="red" stroke-width="0.5mm" />
<polyline points="29.325925925925926,74.0 29.40694227471169,72.464252849959 29.4973788204415,70.92982754068444 29.597235563115376,69.39672407217638 29.706512502733297,67.86494244443477 29.82520963929529,66.33448265745967 29.953326972801335,64.80534471125105 30.090864503251428,63.277528605808875 30.23782223064559,61.751034341133206 30.394200154983803,60.22586191722401 30.55999827626607,58.70201133408126 30.7352165944924,57.179482591705025 30.919855109662784,55.658275690095245 31.11391382177722,54.13839062925194 31.31739273083572,52.619827409175116 31.530291836838273,51.102586029864774 31.75261113978489,49.58666649132091 31.984350639675554,48.07206879354352 32.22551033651028,46.558792936532605 32.47609023028906,45.04683892028817 32.7360903210119,43.5362067448102 33.0055106086788,42.02689641009872 33.28435109328974,40.51890791615371 33.57261177484476,39.01224126297518 33.870292653343824,37.506896450563126 34.17739372878694,36.00287347891755 34.49391500117412,34.50017234803845 34.81985647050536,32.99879305792582 35.155218136780654,31.498735608579672 35.5,30.0" fill="none" stroke="red" stroke-width="0.5mm" />
</svg>
