<?xml version="1.0" encoding="UTF-8" standalone="no"?>
<svg xmlns="http://www.w3.org/2000/svg" viewBox="-9 -9 55.75 134" width="55.75mm" height="134mm" preserveAspectRatio="xMidYMid meet">
<title>Back</title>
<polyline points="29.75,15.0 29.84142388353018,15.927821561168821 29.955874139911643,16.828779020677796 30.093350769144408,17.702872378526934 30.25385377122845,18.550101634716224 30.4373831461638,19.370466789245683 30.64393889395044,20.163967842115294 30.87352101458837,20.93060479332506 31.126129508077597,21.670377642874985 31.40176437441812,22.383286390765075 31.700425613609927,23.069331036995315 32.02211322565303,23.728511581565716 32.36682721054743,24.36082802447628 32.734567568293116,24.966280365726995 33.125334298890095,25.544868605317866 33.53912740233838,26.096592743248905 33.97594687863795,26.621452779520098 34.43579272778881,27.119448714131448 34.918664949790966,27.590580547082958 35.42456354464441,28.034848278374625 35.95348851234915,28.452251908006453 36.505439852905184,28.842791435978434 37.080417566312505,29.206466862290576 37.67842165257113,29.543278186942878 38.29945211168104,29.853225409935334 38.94350894364225,30.13630853126795 39.61059214845475,30.392527550940727 40.30070172611853,30.62188246895366 41.01383767663362,30.824373285306752 41.75,31.0" fill="none" stroke="blue" stroke-width="0.5mm" />
<line x1="30.84236111111111" y1="74.0" x2="27.791666666666664" y2="120" stroke="blue" stroke-width="0.5mm" />
<line x1="27.791666666666664" y1="120" x2="3.958333333333334" y2="120" stroke="blue" stroke-width="0.5mm" />
<line x1="3.958333333333334" y1="120" x2="-4" y2="0" stroke="blue" stroke-width="0.5mm" />
<line x1="-4" y1="0" x2="23.75" y2="-4" stroke="blue" stroke-width="0.5mm" />
<line x1="23.75" y1="-4" x2="29.75" y2="15.0" stroke="blue" stroke-width="0.5mm" />
<polyline points="41.75,31.0 41.115701703449034,32.4172689493974 40.49984432244261,33.839215732458534 39.902427856980765,35.26584034918339 39.32345230706345,36.697142799571985 38.762917672690705,38.13312308362433 38.22082395386251,39.57378120134039 37.69717115057886,41.01911715272017 37.19195926283979,42.46913093776371 36.70518829064525,43.923822556470974 36.23685823399527,45.38319200884196 35.786969092889855,46.84723929487669 35.35552086732899,48.31596441457515 34.94251355731267,49.78936736793734 34.547947162840906,51.26744815496325 34.171821683913706,52.75020677565291 33.814137120531065,54.2376432300063 33.47489347269297,55.72975751802341 33.154090740399425,57.226549639704274 32.85172892365045,58.728019595048856 32.567808022446016,60.23416738405717 32.302328036786136,61.74499300672923 32.05528896667082,63.26049646306501 31.826690812100054,64.78067775306452 31.616533573073845,66.30553687672777 31.424817249592188,67.83507383405475 31.25154184165509,69.36928862504547 31.09670734926254,70.90818124969992 30.960313772414548,72.4517517080181 30.84236111111111,74.0" fill="none" stroke="blue" stroke-width="0.5mm" />
</svg>
