<?xml version="1.0" encoding="utf-8" standalone="no"?>
<!DOCTYPE svg PUBLIC "-//W3C//DTD SVG 1.1//EN"
  "http://www.w3.org/Graphics/SVG/1.1/DTD/svg11.dtd">
<svg xmlns:xlink="http://www.w3.org/1999/xlink" width="110.714507pt" height="266.112pt" viewBox="0 0 110.714507 266.112" xmlns="http://www.w3.org/2000/svg" version="1.1">
 <metadata>
  <rdf:RDF xmlns:dc="http://purl.org/dc/elements/1.1/" xmlns:cc="http://creativecommons.org/ns#" xmlns:rdf="http://www.w3.org/1999/02/22-rdf-syntax-ns#">
   <cc:Work>
    <dc:type rdf:resource="http://purl.org/dc/dcmitype/StillImage"/>
    <dc:date>2025-04-09T10:55:43.473204</dc:date>
    <dc:format>image/svg+xml</dc:format>
    <dc:creator>
     <cc:Agent>
      <dc:title>Matplotlib v3.10.1, https://matplotlib.org/</dc:title>
     </cc:Agent>
    </dc:creator>
   </cc:Work>
  </rdf:RDF>
 </metadata>
 <defs>
  <style type="text/css">*{stroke-linejoin: round; stroke-linecap: butt}</style>
 </defs>
 <g id="figure_1">
  <g id="patch_1">
   <path d="M 0 266.112 
L 110.714507 266.112 
L 110.714507 0 
L 0 0 
L 0 266.112 
z
" style="fill: none"/>
  </g>
  <g id="axes_1">
   <g id="line2d_1">
    <path d="M 76.95403 47.661851 
L 77.135589 49.504421 
L 77.362877 51.293642 
L 77.635894 53.029513 
L 77.954638 54.712035 
L 78.319111 56.341206 
L 78.729312 57.917028 
L 79.185242 59.439501 
L 79.6869 60.908623 
L 80.234286 62.324396 
L 80.8274 63.68682 
L 81.466243 64.995893 
L 82.150814 66.251617 
L 82.881114 67.453991 
L 83.657141 68.603015 
L 84.478898 69.69869 
L 85.346382 70.741015 
L 86.259595 71.729991 
L 87.218536 72.665616 
L 88.223205 73.547892 
L 89.273602 74.376818 
L 90.369728 75.152395 
L 91.511583 75.874622 
L 92.699165 76.543499 
L 93.932476 77.159026 
L 95.211515 77.721204 
L 96.536283 78.230032 
L 97.906779 78.68551 
L 99.323003 79.087639 
L 100.784955 79.436418 
" clip-path="url(#p31e109adf5)" style="fill: none; stroke: #000000; stroke-width: 2; stroke-linecap: square"/>
   </g>
   <g id="line2d_2">
    <path d="M 79.123361 164.830567 
L 73.064955 256.182448 
" clip-path="url(#p31e109adf5)" style="fill: none; stroke: #000000; stroke-width: 2; stroke-linecap: square"/>
   </g>
   <g id="line2d_3">
    <path d="M 73.064955 256.182448 
L 25.73409 256.182448 
" clip-path="url(#p31e109adf5)" style="fill: none; stroke: #000000; stroke-width: 2; stroke-linecap: square"/>
   </g>
   <g id="line2d_4">
    <path d="M 25.73409 256.182448 
L 9.929552 17.873194 
" clip-path="url(#p31e109adf5)" style="fill: none; stroke: #000000; stroke-width: 2; stroke-linecap: square"/>
   </g>
   <g id="line2d_5">
    <path d="M 9.929552 17.873194 
L 65.038567 9.929552 
" clip-path="url(#p31e109adf5)" style="fill: none; stroke: #000000; stroke-width: 2; stroke-linecap: square"/>
   </g>
   <g id="line2d_6">
    <path d="M 65.038567 9.929552 
L 76.95403 47.661851 
" clip-path="url(#p31e109adf5)" style="fill: none; stroke: #000000; stroke-width: 2; stroke-linecap: square"/>
   </g>
   <g id="line2d_7">
    <path d="M 100.784955 79.436418 
L 99.525296 82.250987 
L 98.302258 85.074846 
L 97.115842 87.907995 
L 95.966049 90.750433 
L 94.852877 93.602162 
L 93.776328 96.46318 
L 92.7364 99.333487 
L 91.733095 102.213085 
L 90.766411 105.101972 
L 89.836349 108.000149 
L 88.94291 110.907616 
L 88.086092 113.824373 
L 87.265897 116.750419 
L 86.482323 119.685755 
L 85.735372 122.630381 
L 85.025042 125.584296 
L 84.351335 128.547502 
L 83.714249 131.519997 
L 83.113786 134.501782 
L 82.549944 137.492856 
L 82.022725 140.493221 
L 81.532127 143.502875 
L 81.078152 146.521819 
L 80.660798 149.550052 
L 80.280067 152.587576 
L 79.935957 155.634389 
L 79.62847 158.690492 
L 79.357605 161.755885 
L 79.123361 164.830567 
" clip-path="url(#p31e109adf5)" style="fill: none; stroke: #000000; stroke-width: 2; stroke-linecap: square"/>
   </g>
  </g>
 </g>
 <defs>
  <clipPath id="p31e109adf5">
   <rect x="0" y="-0" width="110.714507" height="266.112"/>
  </clipPath>
 </defs>
</svg>
